<svg xmlns="http://www.w3.org/2000/svg">
    <symbol id="icon_back" viewBox="0 0 640 640"><!--!Font Awesome Free v7.0.0 by @fontawesome - https://fontawesome.com License - https://fontawesome.com/license/free Copyright 2025 Fonticons, Inc.-->
        <path 
            d="M88 256L232 256C241.7 256 250.5 250.2 254.2 241.2C257.9 232.2 255.9 221.9 249 215L202.3 168.3C277.6 109.7 386.6 115 455.8 184.2C530.8 259.2 530.8 380.7 455.8 455.7C380.8 530.7 259.3 530.7 184.3 455.7C174.1 445.5 165.3 434.4 157.9 422.7C148.4 407.8 128.6 403.4 113.7 412.9C98.8 422.4 94.4 442.2 103.9 457.1C113.7 472.7 125.4 487.5 139 501C239 601 401 601 501 501C601 401 601 239 501 139C406.8 44.7 257.3 39.3 156.7 122.8L105 71C98.1 64.2 87.8 62.1 78.8 65.8C69.8 69.5 64 78.3 64 88L64 232C64 245.3 74.7 256 88 256z"/>
    </symbol>
    <symbol id="icon_save" viewBox="0 0 640 640"><!--!Font Awesome Free v7.0.0 by @fontawesome - https://fontawesome.com License - https://fontawesome.com/license/free Copyright 2025 Fonticons, Inc.-->
        <path 
            d="M160 96C124.7 96 96 124.7 96 160L96 480C96 515.3 124.7 544 160 544L480 544C515.3 544 544 515.3 544 480L544 237.3C544 220.3 537.3 204 525.3 192L448 114.7C436 102.7 419.7 96 402.7 96L160 96zM192 192C192 174.3 206.3 160 224 160L384 160C401.7 160 416 174.3 416 192L416 256C416 273.7 401.7 288 384 288L224 288C206.3 288 192 273.7 192 256L192 192zM320 352C355.3 352 384 380.7 384 416C384 451.3 355.3 480 320 480C284.7 480 256 451.3 256 416C256 380.7 284.7 352 320 352z"/>
    </symbol>
    <symbol id="icon_recycle" viewBox="0 0 640 640"><!--!Font Awesome Free v7.0.0 by @fontawesome - https://fontawesome.com License - https://fontawesome.com/license/free Copyright 2025 Fonticons, Inc.-->
        <path 
            d="M216.3 124C262.5 44 378 44 424.2 124L461.5 188.6L489.2 172.6C497.6 167.7 508.1 168.4 515.8 174.3C523.5 180.2 526.9 190.2 524.4 199.6L500.9 287C497.5 299.8 484.3 307.4 471.5 304L384.1 280.6C374.7 278.1 367.8 270.2 366.5 260.6C365.2 251 369.9 241.5 378.3 236.7L406 220.7L368.7 156.1C347.1 118.8 293.3 118.8 271.7 156.1L266.4 165.2C257.6 180.5 238 185.7 222.7 176.9C207.4 168.1 202.2 148.5 211 133.1L216.3 124zM513.7 343.1C529 334.3 548.6 339.5 557.4 354.8L562.7 363.9C608.9 443.9 551.2 543.9 458.8 543.9L384.2 543.9L384.2 575.9C384.2 585.6 378.4 594.4 369.4 598.1C360.4 601.8 350.1 599.8 343.2 592.9L279.2 528.9C269.8 519.5 269.8 504.3 279.2 495L343.2 431C350.1 424.1 360.4 422.1 369.4 425.8C378.4 429.5 384.2 438.3 384.2 448L384.2 480L458.8 480C501.9 480 528.9 433.3 507.3 396L502 386.9C493.2 371.6 498.4 352 513.7 343.2zM115 299.4L87.3 283.4C78.9 278.5 74.2 269.1 75.5 259.5C76.8 249.9 83.7 242 93.1 239.5L180.5 216C193.3 212.6 206.5 220.2 209.9 233L233.3 320.4C235.8 329.8 232.4 339.7 224.7 345.7C217 351.7 206.5 352.3 198.1 347.4L170.4 331.4L133.1 396C111.5 433.3 138.5 480 181.6 480L192.2 480C209.9 480 224.2 494.3 224.2 512C224.2 529.7 209.9 544 192.2 544L181.6 544C89.3 544 31.6 444 77.8 364L115 299.4z"/>
    </symbol>
    <symbol id="icon_github" viewBox="0 0 640 640"><!--!Font Awesome Free v7.0.0 by @fontawesome - https://fontawesome.com License - https://fontawesome.com/license/free Copyright 2025 Fonticons, Inc.-->
        <path
            d="M237.9 461.4C237.9 463.4 235.6 465 232.7 465C229.4 465.3 227.1 463.7 227.1 461.4C227.1 459.4 229.4 457.8 232.3 457.8C235.3 457.5 237.9 459.1 237.9 461.4zM206.8 456.9C206.1 458.9 208.1 461.2 211.1 461.8C213.7 462.8 216.7 461.8 217.3 459.8C217.9 457.8 216 455.5 213 454.6C210.4 453.9 207.5 454.9 206.8 456.9zM251 455.2C248.1 455.9 246.1 457.8 246.4 460.1C246.7 462.1 249.3 463.4 252.3 462.7C255.2 462 257.2 460.1 256.9 458.1C256.6 456.2 253.9 454.9 251 455.2zM316.8 72C178.1 72 72 177.3 72 316C72 426.9 141.8 521.8 241.5 555.2C254.3 557.5 258.8 549.6 258.8 543.1C258.8 536.9 258.5 502.7 258.5 481.7C258.5 481.7 188.5 496.7 173.8 451.9C173.8 451.9 162.4 422.8 146 415.3C146 415.3 123.1 399.6 147.6 399.9C147.6 399.9 172.5 401.9 186.2 425.7C208.1 464.3 244.8 453.2 259.1 446.6C261.4 430.6 267.9 419.5 275.1 412.9C219.2 406.7 162.8 398.6 162.8 302.4C162.8 274.9 170.4 261.1 186.4 243.5C183.8 237 175.3 210.2 189 175.6C209.9 169.1 258 202.6 258 202.6C278 197 299.5 194.1 320.8 194.1C342.1 194.1 363.6 197 383.6 202.6C383.6 202.6 431.7 169 452.6 175.6C466.3 210.3 457.8 237 455.2 243.5C471.2 261.2 481 275 481 302.4C481 398.9 422.1 406.6 366.2 412.9C375.4 420.8 383.2 435.8 383.2 459.3C383.2 493 382.9 534.7 382.9 542.9C382.9 549.4 387.5 557.3 400.2 555C500.2 521.8 568 426.9 568 316C568 177.3 455.5 72 316.8 72zM169.2 416.9C167.9 417.9 168.2 420.2 169.9 422.1C171.5 423.7 173.8 424.4 175.1 423.1C176.4 422.1 176.1 419.8 174.4 417.9C172.8 416.3 170.5 415.6 169.2 416.9zM158.4 408.8C157.7 410.1 158.7 411.7 160.7 412.7C162.3 413.7 164.3 413.4 165 412C165.7 410.7 164.7 409.1 162.7 408.1C160.7 407.5 159.1 407.8 158.4 408.8zM190.8 444.4C189.2 445.7 189.8 448.7 192.1 450.6C194.4 452.9 197.3 453.2 198.6 451.6C199.9 450.3 199.3 447.3 197.3 445.4C195.1 443.1 192.1 442.8 190.8 444.4zM179.4 429.7C177.8 430.7 177.8 433.3 179.4 435.6C181 437.9 183.7 438.9 185 437.9C186.6 436.6 186.6 434 185 431.7C183.6 429.4 181 428.4 179.4 429.7z" />
    </symbol>
    <symbol id="icon_themeLight" viewBox="0 0 640 640"><!--!Font Awesome Free v7.0.0 by @fontawesome - https://fontawesome.com License - https://fontawesome.com/license/free Copyright 2025 Fonticons, Inc.-->
        <path 
            d="M210.2 53.9C217.6 50.8 226 51.7 232.7 56.1L320.5 114.3L408.3 56.1C415 51.7 423.4 50.9 430.8 53.9C438.2 56.9 443.4 63.5 445 71.3L465.9 174.5L569.1 195.4C576.9 197 583.5 202.4 586.5 209.7C589.5 217 588.7 225.5 584.3 232.2L526.1 320L584.3 407.8C588.7 414.5 589.5 422.9 586.5 430.3C583.5 437.7 576.9 443.1 569.1 444.6L465.8 465.4L445 568.7C443.4 576.5 438 583.1 430.7 586.1C423.4 589.1 414.9 588.3 408.2 583.9L320.4 525.7L232.6 583.9C225.9 588.3 217.5 589.1 210.1 586.1C202.7 583.1 197.3 576.5 195.8 568.7L175 465.4L71.7 444.5C63.9 442.9 57.3 437.5 54.3 430.2C51.3 422.9 52.1 414.4 56.5 407.7L114.7 320L56.5 232.2C52.1 225.5 51.3 217.1 54.3 209.7C57.3 202.3 63.9 196.9 71.7 195.4L175 174.6L195.9 71.3C197.5 63.5 202.9 56.9 210.2 53.9zM239.6 320C239.6 275.6 275.6 239.6 320 239.6C364.4 239.6 400.4 275.6 400.4 320C400.4 364.4 364.4 400.4 320 400.4C275.6 400.4 239.6 364.4 239.6 320zM448.4 320C448.4 249.1 390.9 191.6 320 191.6C249.1 191.6 191.6 249.1 191.6 320C191.6 390.9 249.1 448.4 320 448.4C390.9 448.4 448.4 390.9 448.4 320z"/>
    </symbol>
    <symbol id="icon_themeDark" viewBox="0 0 640 640"><!--!Font Awesome Free v7.0.0 by @fontawesome - https://fontawesome.com License - https://fontawesome.com/license/free Copyright 2025 Fonticons, Inc.-->
        <path 
            d="M320 64C178.6 64 64 178.6 64 320C64 461.4 178.6 576 320 576C388.8 576 451.3 548.8 497.3 504.6C504.6 497.6 506.7 486.7 502.6 477.5C498.5 468.3 488.9 462.6 478.8 463.4C473.9 463.8 469 464 464 464C362.4 464 280 381.6 280 280C280 207.9 321.5 145.4 382.1 115.2C391.2 110.7 396.4 100.9 395.2 90.8C394 80.7 386.6 72.5 376.7 70.3C358.4 66.2 339.4 64 320 64z"/>
    </symbol>
    <symbol id="icon_restart" viewBox="0 0 512 512"><!--!Font Awesome Free 6.7.2 by @fontawesome - https://fontawesome.com License - https://fontawesome.com/license/free Copyright 2025 Fonticons, Inc.-->
        <path
            d="M105.1 202.6c7.7-21.8 20.2-42.3 37.8-59.8c62.5-62.5 163.8-62.5 226.3 0L386.3 160 352 160c-17.7 0-32 14.3-32 32s14.3 32 32 32l111.5 0c0 0 0 0 0 0l.4 0c17.7 0 32-14.3 32-32l0-112c0-17.7-14.3-32-32-32s-32 14.3-32 32l0 35.2L414.4 97.6c-87.5-87.5-229.3-87.5-316.8 0C73.2 122 55.6 150.7 44.8 181.4c-5.9 16.7 2.9 34.9 19.5 40.8s34.9-2.9 40.8-19.5zM39 289.3c-5 1.5-9.8 4.2-13.7 8.2c-4 4-6.7 8.8-8.1 14c-.3 1.2-.6 2.5-.8 3.8c-.3 1.7-.4 3.4-.4 5.1L16 432c0 17.7 14.3 32 32 32s32-14.3 32-32l0-35.1 17.6 17.5c0 0 0 0 0 0c87.5 87.4 229.3 87.4 316.7 0c24.4-24.4 42.1-53.1 52.9-83.8c5.9-16.7-2.9-34.9-19.5-40.8s-34.9 2.9-40.8 19.5c-7.7 21.8-20.2 42.3-37.8 59.8c-62.5 62.5-163.8 62.5-226.3 0l-.1-.1L125.6 352l34.4 0c17.7 0 32-14.3 32-32s-14.3-32-32-32L48.4 288c-1.6 0-3.2 .1-4.8 .3s-3.1 .5-4.6 1z" />
    </symbol>
    <symbol id="icon_settings" viewBox="0 0 640 640"><!--!Font Awesome Free v7.0.0 by @fontawesome - https://fontawesome.com License - https://fontawesome.com/license/free Copyright 2025 Fonticons, Inc.-->
        <path 
            d="M96 128C78.3 128 64 142.3 64 160C64 177.7 78.3 192 96 192L182.7 192C195 220.3 223.2 240 256 240C288.8 240 317 220.3 329.3 192L544 192C561.7 192 576 177.7 576 160C576 142.3 561.7 128 544 128L329.3 128C317 99.7 288.8 80 256 80C223.2 80 195 99.7 182.7 128L96 128zM96 288C78.3 288 64 302.3 64 320C64 337.7 78.3 352 96 352L342.7 352C355 380.3 383.2 400 416 400C448.8 400 477 380.3 489.3 352L544 352C561.7 352 576 337.7 576 320C576 302.3 561.7 288 544 288L489.3 288C477 259.7 448.8 240 416 240C383.2 240 355 259.7 342.7 288L96 288zM96 448C78.3 448 64 462.3 64 480C64 497.7 78.3 512 96 512L150.7 512C163 540.3 191.2 560 224 560C256.8 560 285 540.3 297.3 512L544 512C561.7 512 576 497.7 576 480C576 462.3 561.7 448 544 448L297.3 448C285 419.7 256.8 400 224 400C191.2 400 163 419.7 150.7 448L96 448z"/>
    </symbol>
    <symbol id="icon_database" viewBox="0 0 448 512"><!--!Font Awesome Free 6.7.2 by @fontawesome - https://fontawesome.com License - https://fontawesome.com/license/free Copyright 2025 Fonticons, Inc.-->
        <path
            d="M448 80l0 48c0 44.2-100.3 80-224 80S0 172.2 0 128L0 80C0 35.8 100.3 0 224 0S448 35.8 448 80zM393.2 214.7c20.8-7.4 39.9-16.9 54.8-28.6L448 288c0 44.2-100.3 80-224 80S0 332.2 0 288L0 186.1c14.9 11.8 34 21.2 54.8 28.6C99.7 230.7 159.5 240 224 240s124.3-9.3 169.2-25.3zM0 346.1c14.9 11.8 34 21.2 54.8 28.6C99.7 390.7 159.5 400 224 400s124.3-9.3 169.2-25.3c20.8-7.4 39.9-16.9 54.8-28.6l0 85.9c0 44.2-100.3 80-224 80S0 476.2 0 432l0-85.9z" />
    </symbol>
    <symbol id="icon_bot" viewBox="0 0 640 512"><!--!Font Awesome Free 6.7.2 by @fontawesome - https://fontawesome.com License - https://fontawesome.com/license/free Copyright 2025 Fonticons, Inc.-->
        <path
            d="M320 0c17.7 0 32 14.3 32 32l0 64 120 0c39.8 0 72 32.2 72 72l0 272c0 39.8-32.2 72-72 72l-304 0c-39.8 0-72-32.2-72-72l0-272c0-39.8 32.2-72 72-72l120 0 0-64c0-17.7 14.3-32 32-32zM208 384c-8.8 0-16 7.2-16 16s7.2 16 16 16l32 0c8.8 0 16-7.2 16-16s-7.2-16-16-16l-32 0zm96 0c-8.8 0-16 7.2-16 16s7.2 16 16 16l32 0c8.8 0 16-7.2 16-16s-7.2-16-16-16l-32 0zm96 0c-8.8 0-16 7.2-16 16s7.2 16 16 16l32 0c8.8 0 16-7.2 16-16s-7.2-16-16-16l-32 0zM264 256a40 40 0 1 0 -80 0 40 40 0 1 0 80 0zm152 40a40 40 0 1 0 0-80 40 40 0 1 0 0 80zM48 224l16 0 0 192-16 0c-26.5 0-48-21.5-48-48l0-96c0-26.5 21.5-48 48-48zm544 0c26.5 0 48 21.5 48 48l0 96c0 26.5-21.5 48-48 48l-16 0 0-192 16 0z" />
    </symbol>
    <symbol id="icon_user" viewBox="0 0 640 640"><!--!Font Awesome Free v7.0.0 by @fontawesome - https://fontawesome.com License - https://fontawesome.com/license/free Copyright 2025 Fonticons, Inc.-->
        <path 
            d="M320 312C386.3 312 440 258.3 440 192C440 125.7 386.3 72 320 72C253.7 72 200 125.7 200 192C200 258.3 253.7 312 320 312zM290.3 368C191.8 368 112 447.8 112 546.3C112 562.7 125.3 576 141.7 576L498.3 576C514.7 576 528 562.7 528 546.3C528 447.8 448.2 368 349.7 368L290.3 368z"/>
    </symbol>
    <symbol id="icon_digit_0" viewBox="0 0 320 512"><!--!Font Awesome Free 6.7.2 by @fontawesome - https://fontawesome.com License - https://fontawesome.com/license/free Copyright 2025 Fonticons, Inc.-->
        <path
            d="M0 192C0 103.6 71.6 32 160 32s160 71.6 160 160l0 128c0 88.4-71.6 160-160 160S0 408.4 0 320L0 192zM160 96c-53 0-96 43-96 96l0 128c0 53 43 96 96 96s96-43 96-96l0-128c0-53-43-96-96-96z" />
    </symbol>
    <symbol id="icon_digit_1" viewBox="0 0 256 512"><!--!Font Awesome Free 6.7.2 by @fontawesome - https://fontawesome.com License - https://fontawesome.com/license/free Copyright 2025 Fonticons, Inc.-->
        <path
            d="M160 64c0-11.8-6.5-22.6-16.9-28.2s-23-5-32.8 1.6l-96 64C-.5 111.2-4.4 131 5.4 145.8s29.7 18.7 44.4 8.9L96 123.8 96 416l-64 0c-17.7 0-32 14.3-32 32s14.3 32 32 32l96 0 96 0c17.7 0 32-14.3 32-32s-14.3-32-32-32l-64 0 0-352z" />
    </symbol>
    <symbol id="icon_digit_2" viewBox="0 0 320 512"><!--!Font Awesome Free 6.7.2 by @fontawesome - https://fontawesome.com License - https://fontawesome.com/license/free Copyright 2025 Fonticons, Inc.-->
        <path
            d="M142.9 96c-21.5 0-42.2 8.5-57.4 23.8L54.6 150.6c-12.5 12.5-32.8 12.5-45.3 0s-12.5-32.8 0-45.3L40.2 74.5C67.5 47.3 104.4 32 142.9 32C223 32 288 97 288 177.1c0 38.5-15.3 75.4-42.5 102.6L109.3 416 288 416c17.7 0 32 14.3 32 32s-14.3 32-32 32L32 480c-12.9 0-24.6-7.8-29.6-19.8s-2.2-25.7 6.9-34.9L200.2 234.5c15.2-15.2 23.8-35.9 23.8-57.4c0-44.8-36.3-81.1-81.1-81.1z" />
    </symbol>
    <symbol id="icon_digit_3" viewBox="0 0 320 512"><!--!Font Awesome Free 6.7.2 by @fontawesome - https://fontawesome.com License - https://fontawesome.com/license/free Copyright 2025 Fonticons, Inc.-->
        <path
            d="M0 64C0 46.3 14.3 32 32 32l240 0c13.2 0 25 8.1 29.8 20.4s1.5 26.3-8.2 35.2L162.3 208l21.7 0c75.1 0 136 60.9 136 136s-60.9 136-136 136l-78.6 0C63 480 24.2 456 5.3 418.1l-1.9-3.8c-7.9-15.8-1.5-35 14.3-42.9s35-1.5 42.9 14.3l1.9 3.8c8.1 16.3 24.8 26.5 42.9 26.5l78.6 0c39.8 0 72-32.2 72-72s-32.2-72-72-72L80 272c-13.2 0-25-8.1-29.8-20.4s-1.5-26.3 8.2-35.2L189.7 96 32 96C14.3 96 0 81.7 0 64z" />
    </symbol>
    <symbol id="icon_digit_4" viewBox="0 0 384 512"><!--!Font Awesome Free 6.7.2 by @fontawesome - https://fontawesome.com License - https://fontawesome.com/license/free Copyright 2025 Fonticons, Inc.-->
        <path
            d="M189 77.6c7.5-16 .7-35.1-15.3-42.6s-35.1-.7-42.6 15.3L3 322.4c-4.7 9.9-3.9 21.5 1.9 30.8S21 368 32 368l224 0 0 80c0 17.7 14.3 32 32 32s32-14.3 32-32l0-80 32 0c17.7 0 32-14.3 32-32s-14.3-32-32-32l-32 0 0-144c0-17.7-14.3-32-32-32s-32 14.3-32 32l0 144L82.4 304 189 77.6z" />
    </symbol>
    <symbol id="icon_digit_5" viewBox="0 0 320 512"><!--!Font Awesome Free 6.7.2 by @fontawesome - https://fontawesome.com License - https://fontawesome.com/license/free Copyright 2025 Fonticons, Inc.-->
        <path
            d="M32.5 58.3C35.3 43.1 48.5 32 64 32l192 0c17.7 0 32 14.3 32 32s-14.3 32-32 32L90.7 96 70.3 208 184 208c75.1 0 136 60.9 136 136s-60.9 136-136 136l-83.5 0c-39.4 0-75.4-22.3-93-57.5l-4.1-8.2c-7.9-15.8-1.5-35 14.3-42.9s35-1.5 42.9 14.3l4.1 8.2c6.8 13.6 20.6 22.1 35.8 22.1l83.5 0c39.8 0 72-32.2 72-72s-32.2-72-72-72L32 272c-9.5 0-18.5-4.2-24.6-11.5s-8.6-16.9-6.9-26.2l32-176z" />
    </symbol>
    <symbol id="icon_digit_6" viewBox="0 0 320 512"><!--!Font Awesome Free 6.7.2 by @fontawesome - https://fontawesome.com License - https://fontawesome.com/license/free Copyright 2025 Fonticons, Inc.-->
        <path
            d="M232.4 84.7c11.4-13.5 9.7-33.7-3.8-45.1s-33.7-9.7-45.1 3.8L38.6 214.7C14.7 242.9 1.1 278.4 .1 315.2c0 1.4-.1 2.9-.1 4.3l0 .5c0 88.4 71.6 160 160 160s160-71.6 160-160c0-85.5-67.1-155.4-151.5-159.8l63.9-75.6zM256 320A96 96 0 1 1 64 320a96 96 0 1 1 192 0z" />
    </symbol>
    <symbol id="icon_digit_7" viewBox="0 0 640 640"><!--!Font Awesome Free v7.0.1 by @fontawesome - https://fontawesome.com License - https://fontawesome.com/license/free Copyright 2025 Fonticons, Inc.-->
        <path d="M160 128C160 110.3 174.3 96 192 96L448 96C459.5 96 470 102.1 475.7 112.1C481.4 122.1 481.4 134.3 475.6 144.2L251.6 528.2C242.7 543.5 223.1 548.6 207.8 539.7C192.5 530.8 187.4 511.2 196.3 495.9L392.3 160L192 160C174.3 160 160 145.7 160 128z"/>
    </symbol>
    <symbol id="icon_digit_8" viewBox="0 0 640 640"><!--!Font Awesome Free v7.0.1 by @fontawesome - https://fontawesome.com License - https://fontawesome.com/license/free Copyright 2025 Fonticons, Inc.-->
        <path d="M464 224C464 153.3 406.7 96 336 96L304 96C233.3 96 176 153.3 176 224C176 258.6 189.7 290 212 313C180.5 336.3 160 373.8 160 416C160 486.7 217.3 544 288 544L352 544C422.7 544 480 486.7 480 416C480 373.8 459.5 336.3 428 313C450.3 290 464 258.6 464 224zM336.1 352L352 352C387.3 352 416 380.7 416 416C416 451.3 387.3 480 352 480L288 480C252.7 480 224 451.3 224 416C224 380.7 252.7 352 288 352L336.1 352zM336.1 288L304 288C268.7 288 240 259.3 240 224C240 188.7 268.7 160 304 160L336 160C371.3 160 400 188.7 400 224C400 259.3 371.4 288 336 288z"/>
    </symbol>
    <symbol id="icon_digit_9" viewBox="0 0 640 640"><!--!Font Awesome Free v7.0.1 by @fontawesome - https://fontawesome.com License - https://fontawesome.com/license/free Copyright 2025 Fonticons, Inc.-->
        <path d="M336 384C365.6 384 393.1 375.1 416 359.8L416 392C416 440.6 376.6 480 328 480L224 480C206.3 480 192 494.3 192 512C192 529.7 206.3 544 224 544L328 544C411.9 544 480 475.9 480 392L480 239.9C479.9 160.4 415.5 96 336 96L288 96C208.5 96 144 160.5 144 240C144 319.5 208.5 384 288 384L336 384zM416 240C416 284.2 380.2 320 336 320L288 320C243.8 320 208 284.2 208 240C208 195.8 243.8 160 288 160L336 160C380.2 160 416 195.8 416 240z"/>
    </symbol>
    <symbol id="icon_vault" viewBox="0 0 576 512"><!--!Font Awesome Free 6.7.2 by @fontawesome - https://fontawesome.com License - https://fontawesome.com/license/free Copyright 2025 Fonticons, Inc.-->
        <path
            d="M64 0C28.7 0 0 28.7 0 64L0 416c0 35.3 28.7 64 64 64l16 0 16 32 64 0 16-32 224 0 16 32 64 0 16-32 16 0c35.3 0 64-28.7 64-64l0-352c0-35.3-28.7-64-64-64L64 0zM224 320a80 80 0 1 0 0-160 80 80 0 1 0 0 160zm0-240a160 160 0 1 1 0 320 160 160 0 1 1 0-320zM480 221.3L480 336c0 8.8-7.2 16-16 16s-16-7.2-16-16l0-114.7c-18.6-6.6-32-24.4-32-45.3c0-26.5 21.5-48 48-48s48 21.5 48 48c0 20.9-13.4 38.7-32 45.3z" />
    </symbol>
    <symbol id="icon_trophy" viewBox="0 0 640 640"><!--!Font Awesome Free v7.0.0 by @fontawesome - https://fontawesome.com License - https://fontawesome.com/license/free Copyright 2025 Fonticons, Inc.-->
        <path 
            d="M208.3 64L432.3 64C458.8 64 480.4 85.8 479.4 112.2C479.2 117.5 479 122.8 478.7 128L528.3 128C554.4 128 577.4 149.6 575.4 177.8C567.9 281.5 514.9 338.5 457.4 368.3C441.6 376.5 425.5 382.6 410.2 387.1C390 415.7 369 430.8 352.3 438.9L352.3 512L416.3 512C434 512 448.3 526.3 448.3 544C448.3 561.7 434 576 416.3 576L224.3 576C206.6 576 192.3 561.7 192.3 544C192.3 526.3 206.6 512 224.3 512L288.3 512L288.3 438.9C272.3 431.2 252.4 416.9 233 390.6C214.6 385.8 194.6 378.5 175.1 367.5C121 337.2 72.2 280.1 65.2 177.6C63.3 149.5 86.2 127.9 112.3 127.9L161.9 127.9C161.6 122.7 161.4 117.5 161.2 112.1C160.2 85.6 181.8 63.9 208.3 63.9zM165.5 176L113.1 176C119.3 260.7 158.2 303.1 198.3 325.6C183.9 288.3 172 239.6 165.5 176zM444 320.8C484.5 297 521.1 254.7 527.3 176L475 176C468.8 236.9 457.6 284.2 444 320.8z"/>
    </symbol>
    <symbol id="icon_arrow_left" viewBox="0 0 640 640"><!--!Font Awesome Free v7.0.0 by @fontawesome - https://fontawesome.com License - https://fontawesome.com/license/free Copyright 2025 Fonticons, Inc.-->
        <path 
            d="M73.4 297.4C60.9 309.9 60.9 330.2 73.4 342.7L233.4 502.7C245.9 515.2 266.2 515.2 278.7 502.7C291.2 490.2 291.2 469.9 278.7 457.4L173.3 352L544 352C561.7 352 576 337.7 576 320C576 302.3 561.7 288 544 288L173.3 288L278.7 182.6C291.2 170.1 291.2 149.8 278.7 137.3C266.2 124.8 245.9 124.8 233.4 137.3L73.4 297.3z"/>
    </symbol>
    <symbol id="icon_arrow_right" viewBox="0 0 640 640"><!--!Font Awesome Free v7.0.0 by @fontawesome - https://fontawesome.com License - https://fontawesome.com/license/free Copyright 2025 Fonticons, Inc.-->
        <path 
            d="M566.6 342.6C579.1 330.1 579.1 309.8 566.6 297.3L406.6 137.3C394.1 124.8 373.8 124.8 361.3 137.3C348.8 149.8 348.8 170.1 361.3 182.6L466.7 288L96 288C78.3 288 64 302.3 64 320C64 337.7 78.3 352 96 352L466.7 352L361.3 457.4C348.8 469.9 348.8 490.2 361.3 502.7C373.8 515.2 394.1 515.2 406.6 502.7L566.6 342.7z"/>
    </symbol>
    <symbol id="icon_ban" viewBox="0 0 640 640"><!--!Font Awesome Free v7.0.0 by @fontawesome - https://fontawesome.com License - https://fontawesome.com/license/free Copyright 2025 Fonticons, Inc.-->
        <path 
            d="M431.2 476.5L163.5 208.8C141.1 240.2 128 278.6 128 320C128 426 214 512 320 512C361.5 512 399.9 498.9 431.2 476.5zM476.5 431.2C498.9 399.8 512 361.4 512 320C512 214 426 128 320 128C278.5 128 240.1 141.1 208.8 163.5L476.5 431.2zM64 320C64 178.6 178.6 64 320 64C461.4 64 576 178.6 576 320C576 461.4 461.4 576 320 576C178.6 576 64 461.4 64 320z"/>
    </symbol>
    <symbol id="icon_shield" viewBox="0 0 640 640"><!--!Font Awesome Pro v7.0.0 by @fontawesome - https://fontawesome.com License - https://fontawesome.com/license (Commercial License) Copyright 2025 Fonticons, Inc.-->
        <path 
            d="M320 64C324.6 64 329.2 65 333.4 66.9L521.8 146.8C543.8 156.1 560.2 177.8 560.1 204C559.6 303.2 518.8 484.7 346.5 567.2C329.8 575.2 310.4 575.2 293.7 567.2C121.3 484.7 80.6 303.2 80.1 204C80 177.8 96.4 156.1 118.4 146.8L306.7 66.9C310.9 65 315.4 64 320 64z"/>
    </symbol>
    <symbol id ="icon_replay" viewBox="0 0 640 640"><!--!Font Awesome Free v7.0.1 by @fontawesome - https://fontawesome.com License - https://fontawesome.com/license/free Copyright 2025 Fonticons, Inc.-->
        <path d="M544 160C544 124.7 515.3 96 480 96L160 96C124.7 96 96 124.7 96 160L96 480C96 515.3 124.7 544 160 544L480 544C515.3 544 544 515.3 544 480L544 160zM416 320C416 326.7 413.2 333 408.3 337.6L296.3 441.6C289.3 448.1 279.1 449.8 270.4 446C261.7 442.2 256 433.5 256 424L256 216C256 206.5 261.7 197.8 270.4 194C279.1 190.2 289.3 191.9 296.3 198.4L408.3 302.4C413.2 306.9 416 313.3 416 320z"/>
    </symbol>
    <symbol id="icon_forward_step" viewBox="0 0 640 640"><!--!Font Awesome Free v7.0.1 by @fontawesome - https://fontawesome.com License - https://fontawesome.com/license/free Copyright 2025 Fonticons, Inc.-->
        <path d="M149 100.8C161.9 93.8 177.7 94.5 190 102.6L448 272.1L448 128C448 110.3 462.3 96 480 96C497.7 96 512 110.3 512 128L512 512C512 529.7 497.7 544 480 544C462.3 544 448 529.7 448 512L448 367.9L190 537.5C177.7 545.6 162 546.3 149 539.3C136 532.3 128 518.7 128 504L128 136C128 121.3 136.1 107.8 149 100.8z"/>
    </symbol>
    <symbol id="icon_forward_fast" viewBox="0 0 640 640"><!--!Font Awesome Free v7.0.1 by @fontawesome - https://fontawesome.com License - https://fontawesome.com/license/free Copyright 2025 Fonticons, Inc.-->
        <path d="M83.8 541.6C95.8 546.6 109.5 543.8 118.7 534.7L288 365.3L288 512C288 524.9 295.8 536.6 307.8 541.6C319.8 546.6 333.5 543.8 342.7 534.7L512 365.3L512 512C512 529.7 526.3 544 544 544C561.7 544 576 529.7 576 512L576 128C576 110.3 561.7 96 544 96C526.3 96 512 110.3 512 128L512 274.7L342.6 105.3C333.4 96.1 319.7 93.4 307.7 98.4C295.7 103.4 288 115.1 288 128L288 274.7L118.6 105.4C109.4 96.2 95.7 93.5 83.7 98.5C71.7 103.5 64 115.1 64 128L64 512C64 524.9 71.8 536.6 83.8 541.6z"/>
    </symbol>
    <symbol id="icon_backward_step" viewBox="0 0 640 640"><!--!Font Awesome Free v7.0.1 by @fontawesome - https://fontawesome.com License - https://fontawesome.com/license/free Copyright 2025 Fonticons, Inc.-->
        <path d="M491 100.8C478.1 93.8 462.3 94.5 450 102.6L192 272.1L192 128C192 110.3 177.7 96 160 96C142.3 96 128 110.3 128 128L128 512C128 529.7 142.3 544 160 544C177.7 544 192 529.7 192 512L192 367.9L450 537.5C462.3 545.6 478 546.3 491 539.3C504 532.3 512 518.8 512 504.1L512 136.1C512 121.4 503.9 107.9 491 100.9z"/>
    </symbol>
    <symbol id="icon_backward_fast" viewBox="0 0 640 640"><!--!Font Awesome Free v7.0.1 by @fontawesome - https://fontawesome.com License - https://fontawesome.com/license/free Copyright 2025 Fonticons, Inc.-->
        <path d="M556.2 541.6C544.2 546.6 530.5 543.8 521.3 534.7L352 365.3L352 512C352 524.9 344.2 536.6 332.2 541.6C320.2 546.6 306.5 543.8 297.3 534.7L128 365.3L128 512C128 529.7 113.7 544 96 544C78.3 544 64 529.7 64 512L64 128C64 110.3 78.3 96 96 96C113.7 96 128 110.3 128 128L128 274.7L297.4 105.4C306.6 96.2 320.3 93.5 332.3 98.5C344.3 103.5 352 115.1 352 128L352 274.7L521.4 105.3C530.6 96.1 544.3 93.4 556.3 98.4C568.3 103.4 576 115.1 576 128L576 512C576 524.9 568.2 536.6 556.2 541.6z"/>
    </symbol>
    <symbol id="icon_play" viewBox="0 0 640 640"><!--!Font Awesome Free v7.0.1 by @fontawesome - https://fontawesome.com License - https://fontawesome.com/license/free Copyright 2025 Fonticons, Inc.-->
        <path d="M187.2 100.9C174.8 94.1 159.8 94.4 147.6 101.6C135.4 108.8 128 121.9 128 136L128 504C128 518.1 135.5 531.2 147.6 538.4C159.7 545.6 174.8 545.9 187.2 539.1L523.2 355.1C536 348.1 544 334.6 544 320C544 305.4 536 291.9 523.2 284.9L187.2 100.9z"/>
    </symbol>
    <symbol id="icon_pause" viewBox="0 0 640 640"><!--!Font Awesome Free v7.0.1 by @fontawesome - https://fontawesome.com License - https://fontawesome.com/license/free Copyright 2025 Fonticons, Inc.-->
        <path d="M176 96C149.5 96 128 117.5 128 144L128 496C128 522.5 149.5 544 176 544L240 544C266.5 544 288 522.5 288 496L288 144C288 117.5 266.5 96 240 96L176 96zM400 96C373.5 96 352 117.5 352 144L352 496C352 522.5 373.5 544 400 544L464 544C490.5 544 512 522.5 512 496L512 144C512 117.5 490.5 96 464 96L400 96z"/>
    </symbol>
</svg>