<svg xmlns="http://www.w3.org/2000/svg">
    <symbol id="tower_none">
        <g></g>
    </symbol>
    <symbol id="tower_user">
        <g>
            <circle cx="50" cy="50" r="35" class="fillColorUser"></circle>
        </g>
    </symbol>
    <symbol id="tower_user_dot">
        <g>
            <circle cx="50" cy="50" r="35" class="fillColorUser"></circle>
            <circle cx="50" cy="50" r="10" class="fillColorDot"></circle>
        </g>
    </symbol>
    <symbol id="tower_user_bot">
        <g>
            <circle cx="45" cy="55" r="35" class="fillColorUser"></circle>
            <circle cx="55" cy="45" r="35" class="fillColorBot"></circle>
        </g>
    </symbol>
    <symbol id="tower_user_bot_dot">
        <g>
            <circle cx="45" cy="55" r="35" class="fillColorUser"></circle>
            <circle cx="55" cy="45" r="35" class="fillColorBot"></circle>
            <circle cx="55" cy="45" r="10" class="fillColorDot"></circle>
        </g>
    </symbol>
        <symbol id="tower_user_bot_user">
        <g>
            <circle cx="40" cy="60" r="35" class="fillColorUser"></circle>
            <circle cx="50" cy="50" r="35" class="fillColorBot"></circle>
            <circle cx="60" cy="40" r="35" class="fillColorUser"></circle>
        </g>
    </symbol>
    <symbol id="tower_user_bot_user_dot">
        <g>
            <circle cx="40" cy="60" r="35" class="fillColorUser"></circle>
            <circle cx="50" cy="50" r="35" class="fillColorBot"></circle>
            <circle cx="60" cy="40" r="35" class="fillColorUser"></circle>
            <circle cx="60" cy="40" r="10" class="fillColorDot"></circle>
        </g>
    </symbol>
    <symbol id="tower_user_user_bot">
        <g>
            <circle cx="40" cy="60" r="35" class="fillColorUser"></circle>
            <circle cx="50" cy="50" r="35" class="fillColorUser strokeColor"></circle>
            <circle cx="60" cy="40" r="35" class="fillColorBot"></circle>
        </g>
    </symbol>
    <symbol id="tower_user_user_bot_dot">
        <g>
            <circle cx="40" cy="60" r="35" class="fillColorUser"></circle>
            <circle cx="50" cy="50" r="35" class="fillColorUser strokeColor"></circle>
            <circle cx="60" cy="40" r="35" class="fillColorBot"></circle>
            <circle cx="60" cy="40" r="10" class="fillColorDot"></circle>
        </g>
    </symbol>
    <symbol id="tower_bot">
        <g>
            <circle cx="50" cy="50" r="35" class="fillColorBot"></circle>
        </g>
    </symbol>
    <symbol id="tower_bot_dot">
        <g>
            <circle cx="50" cy="50" r="35" class="fillColorBot"></circle>
            <circle cx="50" cy="50" r="10" class="fillColorDot"></circle>
        </g>
    </symbol>
    <symbol id="tower_bot_user">
        <g>
            <circle cx="45" cy="55" r="35" class="fillColorBot"></circle>
            <circle cx="55" cy="45" r="35" class="fillColorUser"></circle>
        </g>
    </symbol>
    <symbol id="tower_bot_user_dot">
        <g>
            <circle cx="45" cy="55" r="35" class="fillColorBot"></circle>
            <circle cx="55" cy="45" r="35" class="fillColorUser"></circle>
            <circle cx="55" cy="45" r="10" class="fillColorDot"></circle>
        </g>
    </symbol>
    <symbol id="tower_bot_user_bot">
        <g>
            <circle cx="40" cy="60" r="35" class="fillColorBot"></circle>
            <circle cx="50" cy="50" r="35" class="fillColorUser"></circle>
            <circle cx="60" cy="40" r="35" class="fillColorBot"></circle>
        </g>
    </symbol>
    <symbol id="tower_bot_user_bot_dot">
        <g>
            <circle cx="40" cy="60" r="35" class="fillColorBot"></circle>
            <circle cx="50" cy="50" r="35" class="fillColorUser"></circle>
            <circle cx="60" cy="40" r="35" class="fillColorBot"></circle>
            <circle cx="60" cy="40" r="10" class="fillColorDot"></circle>
        </g>
    </symbol>
    <symbol id="tower_bot_bot_user">
        <g>
            <circle cx="40" cy="60" r="35" class="fillColorBot"></circle>
            <circle cx="50" cy="50" r="35" class="fillColorBot strokeColor"></circle>
            <circle cx="60" cy="40" r="35" class="fillColorUser"></circle>
        </g>
    </symbol>
    <symbol id="tower_bot_bot_user_dot">
        <g>
            <circle cx="40" cy="60" r="35" class="fillColorBot"></circle>
            <circle cx="50" cy="50" r="35" class="fillColorBot strokeColor"></circle>
            <circle cx="60" cy="40" r="35" class="fillColorUser"></circle>
            <circle cx="60" cy="40" r="10" class="fillColorDot"></circle>
        </g>
    </symbol>
</svg>